<?xml version="1.0" standalone="no"?>
<!DOCTYPE svg PUBLIC "-//W3C//DTD SVG 20010904//EN"
 "http://www.w3.org/TR/2001/REC-SVG-20010904/DTD/svg10.dtd">
<svg version="1.0" xmlns="http://www.w3.org/2000/svg"
 width="512.000000pt" height="512.000000pt" viewBox="0 0 512.000000 512.000000"
 preserveAspectRatio="xMidYMid meet">
<metadata>
Created by potrace 1.14, written by Peter Selinger 2001-2017
</metadata>
<g transform="translate(0.000000,512.000000) scale(0.100000,-0.100000)"
fill="#000000" stroke="none">
<path d="M2360 4555 l0 -105 50 0 50 0 0 -50 0 -50 -80 0 -80 0 0 -74 0 -73
-51 -7 c-82 -11 -266 -61 -369 -101 -242 -94 -442 -223 -642 -414 l-106 -101
-60 35 c-82 48 -95 46 -135 -17 -88 -139 -179 -309 -173 -323 3 -9 28 -30 56
-47 58 -36 58 -25 1 -156 -51 -115 -103 -287 -126 -412 -27 -146 -32 -442 -10
-588 63 -424 240 -779 539 -1078 298 -297 650 -474 1072 -539 133 -20 395 -20
528 0 422 65 774 242 1072 539 299 300 476 654 539 1079 23 157 16 463 -14
612 -29 138 -85 312 -137 424 -47 101 -48 96 8 126 15 9 32 23 37 34 12 21 4
37 -116 242 -59 101 -84 135 -101 137 -12 2 -47 -11 -77 -28 l-55 -32 -103 98
c-281 268 -629 447 -979 505 l-78 13 0 73 0 73 -80 0 -80 0 0 50 0 50 50 0 50
0 0 105 0 105 -200 0 -200 0 0 -105z m471 -560 c720 -116 1285 -689 1400
-1420 16 -103 16 -387 0 -490 -87 -556 -428 -1023 -925 -1268 -248 -122 -462
-171 -746 -171 -91 0 -201 6 -245 13 -745 118 -1309 682 -1426 1426 -16 103
-16 387 0 490 75 481 343 898 749 1168 86 57 256 141 355 176 147 52 276 79
452 95 70 7 298 -4 386 -19z"/>
<path d="M2455 3859 c-590 -38 -1121 -430 -1329 -983 -110 -292 -129 -635 -52
-934 137 -528 570 -961 1098 -1098 240 -62 536 -62 776 0 528 137 961 570
1098 1098 63 246 61 554 -6 794 -76 269 -206 488 -407 687 -313 309 -732 464
-1178 436z m298 -110 c353 -53 661 -220 888 -482 230 -265 349 -587 349 -939
0 -348 -121 -672 -349 -935 -220 -255 -522 -423 -858 -478 -113 -19 -333 -19
-446 0 -617 101 -1091 576 -1192 1195 -77 480 109 985 482 1305 205 175 438
283 713 330 94 16 318 18 413 4z"/>
<path d="M2489 3371 l-29 -29 0 -419 c0 -410 0 -418 -20 -431 -12 -7 -34 -34
-50 -59 -50 -78 -40 -175 23 -242 41 -43 84 -61 147 -61 63 0 106 18 147 61
63 67 73 164 23 242 -16 25 -38 52 -50 59 -20 13 -20 21 -20 431 l0 419 -29
29 c-23 23 -38 29 -71 29 -33 0 -48 -6 -71 -29z"/>
</g>
</svg>
